<svg id="visual" viewBox="0 0 1920 1080" width="1920" height="1080" xmlns="http://www.w3.org/2000/svg" xmlns:xlink="http://www.w3.org/1999/xlink" version="1.1"><rect x="0" y="0" width="1920" height="1080" fill="#ffffff"></rect><defs><linearGradient id="grad1_0" x1="43.8%" y1="0%" x2="100%" y2="100%"><stop offset="14.444444444444446%" stop-color="#ffffff" stop-opacity="1"></stop><stop offset="85.55555555555554%" stop-color="#ffffff" stop-opacity="1"></stop></linearGradient></defs><defs><linearGradient id="grad2_0" x1="0%" y1="0%" x2="56.3%" y2="100%"><stop offset="14.444444444444446%" stop-color="#ffffff" stop-opacity="1"></stop><stop offset="85.55555555555554%" stop-color="#ffffff" stop-opacity="1"></stop></linearGradient></defs><g transform="translate(1920, 0)"><path d="M0 594C-84.8 592.4 -169.7 590.7 -227.3 548.8C-284.9 506.9 -315.3 424.7 -367.7 367.7C-420.1 310.7 -494.5 279 -535.9 222C-577.2 164.9 -585.6 82.4 -594 0L0 0Z" fill="#F5F3C1"></path></g><g transform="translate(0, 1080)"><path d="M0 -594C76.3 -584 152.7 -574.1 226.9 -547.9C301.2 -521.6 373.3 -479.1 420 -420C466.7 -360.9 488 -285.2 512.8 -212.4C537.5 -139.6 565.8 -69.8 594 0L0 0Z" fill="#F5F3C1"></path></g></svg>